<svg xmlns="http://www.w3.org/2000/svg" width="512" height="512" viewBox="0 0 512 512" version="1.1">
	<path d="M 0 256.002 L 0 512.004 256.250 511.752 L 512.500 511.500 512.752 255.750 L 513.004 0 256.502 0 L 0 0 0 256.002 M 0.492 256.500 C 0.492 397.300, 0.608 454.751, 0.750 384.170 C 0.892 313.588, 0.892 198.388, 0.750 128.170 C 0.608 57.951, 0.492 115.700, 0.492 256.500 M 283.863 136.790 C 278.013 147.080, 266.373 167.425, 257.996 182 C 209.640 266.138, 165.091 343.542, 161.020 350.500 L 156.339 358.500 136.669 358.771 C 125.851 358.920, 117 358.793, 117 358.489 C 117 358.185, 120.971 351.088, 125.824 342.718 C 130.677 334.348, 139.306 319.400, 145 309.500 C 150.694 299.600, 159.398 284.525, 164.342 276 C 169.286 267.475, 173.316 260.050, 173.298 259.500 C 173.280 258.950, 169.155 251.541, 164.132 243.036 C 159.110 234.531, 155 227.218, 155 226.786 C 155 226.354, 154.601 226, 154.114 226 C 153.180 226, 151.438 228.868, 135.276 257 C 121.045 281.772, 77.485 357.432, 66.357 376.708 C 61.211 385.622, 57 393.159, 57 393.458 C 57 393.756, 83.723 394, 116.385 394 L 175.769 394 235.107 291 C 267.742 234.350, 294.688 188, 294.986 188 C 295.470 188, 310.433 213.529, 362.386 303 C 371.169 318.125, 382.029 336.800, 386.521 344.500 L 394.686 358.500 374.964 358.770 L 355.242 359.041 345.621 375.840 C 340.329 385.079, 336 392.945, 336 393.319 C 336 393.694, 362.583 394, 395.073 394 C 443.550 394, 454.089 393.763, 453.823 392.678 C 453.374 390.840, 295.617 118.091, 295 118.084 C 294.725 118.081, 289.714 126.499, 283.863 136.790 M 174.868 192.750 C 176.234 195.298, 193.155 224.451, 193.451 224.767 C 193.635 224.964, 209.611 197.588, 212.719 191.750 C 212.938 191.338, 204.301 191, 193.524 191 C 175.172 191, 173.989 191.111, 174.868 192.750 M 232.052 326.163 L 221.994 342.325 224.120 345.913 C 225.288 347.886, 232.076 359.512, 239.203 371.750 L 252.161 394 272.123 394 L 292.084 394 289.626 389.750 C 288.274 387.413, 282.293 377.137, 276.334 366.915 C 270.375 356.694, 260.550 339.723, 254.500 329.202 C 248.450 318.682, 243.187 310.057, 242.805 310.037 C 242.422 310.017, 237.583 317.273, 232.052 326.163" stroke="none" fill="black" fill-rule="evenodd"/>
</svg>