<svg xmlns="http://www.w3.org/2000/svg" width="1024" height="1024" viewBox="0 0 1024 1024" version="1.1">
	<path d="M 0 512.001 L 0 1024.002 512.250 1023.751 L 1024.500 1023.500 1024.751 511.750 L 1025.002 0 512.501 0 L 0 0 0 512.001 M 0.496 512.500 C 0.496 794.100, 0.610 909.151, 0.750 768.168 C 0.890 627.186, 0.890 396.786, 0.750 256.168 C 0.610 115.551, 0.496 230.900, 0.496 512.500 M 559.541 338.250 C 558.613 340.038, 557.324 342.405, 556.677 343.511 C 554.318 347.542, 546.189 361.591, 544.243 365 C 540.154 372.163, 535.180 380.784, 529.532 390.500 C 526.334 396, 522.834 402.075, 521.753 404 C 520.672 405.925, 517.414 411.550, 514.513 416.500 C 511.612 421.450, 508.230 427.300, 506.998 429.500 C 505.766 431.700, 501.134 439.800, 496.706 447.500 C 492.277 455.200, 487.008 464.425, 484.998 468 C 481.943 473.432, 476.504 482.876, 463.976 504.500 C 463.020 506.150, 460.050 511.325, 457.376 516 C 454.703 520.675, 452.062 525.261, 451.508 526.191 C 450.953 527.121, 447.987 532.296, 444.915 537.691 C 438.807 548.420, 425.785 571.032, 410.473 597.500 C 405.064 606.850, 396.781 621.250, 392.067 629.500 L 383.495 644.500 357.814 644.767 L 332.134 645.033 335.898 638.267 C 337.969 634.545, 340.585 629.925, 341.713 628 C 342.840 626.075, 351.296 611.450, 360.504 595.500 C 369.712 579.550, 378.165 564.925, 379.289 563 C 380.412 561.075, 383.872 555, 386.976 549.500 C 390.080 544, 393.746 537.700, 395.122 535.500 C 396.498 533.300, 399.481 528.084, 401.751 523.909 L 405.878 516.317 402.421 510.409 C 400.520 507.159, 398.554 503.825, 398.052 503 C 396.563 500.551, 383.809 478.731, 382.123 475.750 C 380.134 472.232, 379.589 472.292, 377.572 476.250 C 376.661 478.038, 374.962 481.075, 373.795 483 C 372.629 484.925, 369.684 490.100, 367.251 494.500 C 364.817 498.900, 361.810 504.075, 360.567 506 C 359.325 507.925, 355.391 514.675, 351.825 521 C 348.258 527.325, 342.707 537, 339.489 542.500 C 336.271 548, 332.643 554.300, 331.427 556.500 C 329.281 560.383, 310.268 593.386, 303.197 605.500 C 301.271 608.800, 298.645 613.300, 297.361 615.500 C 296.077 617.700, 294.719 620.175, 294.344 621 C 293.968 621.825, 290.201 628.350, 285.972 635.500 C 281.744 642.650, 276.557 651.650, 274.446 655.500 C 272.336 659.350, 268.931 665.264, 266.881 668.643 C 262.171 676.403, 256 687.613, 256 688.407 C 256 688.740, 290.501 688.897, 332.669 688.756 L 409.337 688.500 410.919 685.788 C 412.723 682.694, 433.980 645.890, 435.500 643.228 C 436.050 642.265, 438.583 637.883, 441.130 633.489 C 443.676 629.095, 446.645 623.925, 447.728 622 C 450.338 617.360, 460.520 599.608, 469.811 583.500 C 473.935 576.350, 479.827 566.128, 482.905 560.783 C 485.982 555.439, 491.762 545.403, 495.750 538.481 C 499.738 531.559, 503 525.506, 503 525.031 C 503 524.556, 503.351 524.017, 503.781 523.833 C 504.210 523.650, 506.736 519.675, 509.393 515 C 512.051 510.325, 515.082 505.011, 516.129 503.191 C 517.176 501.370, 519.881 496.645, 522.141 492.691 C 526.929 484.309, 527.957 482.531, 534.973 470.500 C 537.860 465.550, 542.759 457.087, 545.861 451.693 C 548.962 446.299, 552.752 439.774, 554.282 437.193 C 555.812 434.612, 558.043 430.581, 559.238 428.235 C 560.434 425.890, 561.825 424.108, 562.330 424.277 C 563.165 424.555, 566.972 430.363, 568.686 433.974 C 569.495 435.677, 587.511 466.757, 588.990 469 C 589.534 469.825, 590.950 472.300, 592.137 474.500 C 593.324 476.700, 597.604 484.056, 601.648 490.846 C 605.692 497.637, 609 503.341, 609 503.523 C 609 503.705, 611.209 507.452, 613.909 511.851 C 616.608 516.250, 619.114 520.783, 619.476 521.925 C 619.838 523.066, 620.554 524, 621.067 524 C 621.580 524, 622 524.422, 622 524.938 C 622 525.454, 626.567 533.666, 632.150 543.188 C 637.732 552.709, 644.629 564.550, 647.476 569.500 C 653.029 579.155, 674.091 615.540, 676.997 620.500 C 677.964 622.150, 680.322 626.200, 682.238 629.500 C 684.153 632.800, 686.896 637.525, 688.333 640 L 690.946 644.500 665.331 645 C 643.974 645.417, 639.573 645.749, 638.860 647 C 634.082 655.373, 622.759 674.827, 621.982 676 C 621.435 676.825, 620.686 678.175, 620.317 679 C 619.948 679.825, 618.568 682.230, 617.251 684.344 C 615.933 686.459, 615.041 688.374, 615.267 688.601 C 615.494 688.827, 649.963 688.897, 691.865 688.756 L 768.052 688.500 763.206 680.500 C 760.541 676.100, 751.923 661.250, 744.055 647.500 C 736.187 633.750, 728.906 621.281, 727.875 619.790 C 726.844 618.300, 726 616.902, 726 616.684 C 726 616.286, 717.333 601.130, 713.885 595.500 C 712.875 593.850, 710.957 590.475, 709.623 588 C 708.290 585.525, 703.867 577.875, 699.796 571 C 695.724 564.125, 692.062 557.825, 691.657 557 C 691.253 556.175, 690.371 554.600, 689.698 553.500 C 689.024 552.400, 686.679 548.430, 684.487 544.677 C 682.294 540.925, 680.050 537.095, 679.500 536.166 C 677.627 533.004, 669.248 518.512, 667.261 515 C 666.172 513.075, 662.674 507, 659.486 501.500 C 656.299 496, 652.560 489.475, 651.179 487 C 649.797 484.525, 644.307 475.075, 638.979 466 C 633.652 456.925, 627.504 446.350, 625.317 442.500 C 623.131 438.650, 618.727 431, 615.530 425.500 C 612.334 420, 608.945 414.150, 608 412.500 C 606.045 409.087, 597.445 394.253, 588.869 379.500 C 585.672 374, 578.656 361.747, 573.278 352.272 C 567.900 342.796, 562.989 335.033, 562.364 335.022 C 561.739 335.010, 560.469 336.462, 559.541 338.250 M 406.289 428.750 C 408.009 431.920, 423.289 458.051, 427.075 464.296 L 431.801 472.092 438.793 459.796 C 442.638 453.033, 448.287 443.113, 451.345 437.750 L 456.905 428 431.394 428 C 417.362 428, 406.065 428.337, 406.289 428.750 M 484.103 597.758 C 478.385 606.966, 472.451 616.447, 470.916 618.826 L 468.126 623.153 470.009 626.326 C 471.789 629.326, 474.873 634.651, 485.816 653.619 C 488.392 658.085, 494.100 667.868, 498.500 675.359 L 506.500 688.979 532.230 688.990 L 557.960 689 555.309 684.250 C 553.851 681.638, 549.135 673.520, 544.829 666.210 C 540.523 658.901, 537 652.695, 537 652.420 C 537 652.144, 536.152 650.700, 535.116 649.210 C 534.080 647.719, 530.757 642.225, 527.732 637 C 514.740 614.560, 505.910 599.397, 505.021 598 C 504.496 597.175, 502.139 593.013, 499.783 588.751 C 497.427 584.489, 495.275 581.005, 495 581.009 C 494.725 581.013, 489.821 588.551, 484.103 597.758" stroke="none" fill="black" fill-rule="evenodd"/>
</svg>